<?xml version="1.0" encoding="utf-8"?>
<!-- Generator: Adobe Illustrator 19.1.0, SVG Export Plug-In . SVG Version: 6.00 Build 0)  -->
<svg version="1.1" id="Ebene_1" xmlns="http://www.w3.org/2000/svg" xmlns:xlink="http://www.w3.org/1999/xlink" x="0px" y="0px"
   viewBox="0 0 512 512" style="enable-background:new 0 0 512 512;" xml:space="preserve">
<style type="text/css">
  .st0{fill:#FFFFFF;}
</style>
<g>
  <path d="M349.3,252.5c0,0,0,1,0,3.1c0,2-0.1,5-0.2,8.9c-0.2,7.8-0.7,19.3-1.7,33.8c-1.1,14.6-2.9,32.2-6.2,52.3
    c-3.4,20.1-8.1,42.7-16.3,66.6c-4.2,11.9-9.2,24.2-16.1,36.2c-3.4,6-7.4,11.9-12,17.5c-4.7,5.6-10.2,10.9-17.1,15
    c-3.4,2-7.2,3.7-11.2,4.8c-1,0.3-2,0.5-3.1,0.7c-1,0.2-2.1,0.4-3.2,0.5c-1.1,0.2-2.1,0.2-3.2,0.2c0,0-0.5,0-0.6,0l-0.3,0l-0.7,0
    c-0.5,0-0.9,0-1.4,0l-1.7-0.1l-0.9-0.1l-0.8-0.1c-1.1-0.1-2.1-0.3-3.2-0.6c-2.1-0.4-4.2-1.1-6.2-1.8c-4-1.5-7.8-3.6-11.3-6
    c-7-4.8-12.8-10.8-18-17.2c-2.6-3.2-5-6.6-7.2-10c-2.2-3.4-4.3-7-6.3-10.5c-7.9-14.4-14-29.7-19-45.5c-2.5-7.9-4.7-15.9-6.7-24
    c-1-4-1.9-8.1-2.8-12.2c-0.8-4.1-1.7-8.2-2.4-12.3c-6.1-33-8.5-67.1-8.3-101l0.1-6.3l0.2-6.4c0.1-4.2,0.3-8.5,0.6-12.7
    c0.2-4.2,0.5-8.5,0.8-12.7c0.3-4.2,0.7-8.4,1.2-12.7c0.9-8.4,1.9-16.8,3.1-25.2c1.3-8.3,2.7-16.6,4.4-24.9
    c1.6-8.2,3.6-16.4,5.7-24.4c2.2-8.1,4.5-16,7.2-23.9c5.3-15.7,11.7-30.9,19.9-45.1c4.1-7.1,8.6-13.9,13.9-20.2
    c5.3-6.3,11.2-12.2,18.3-16.8c3.5-2.3,7.3-4.3,11.4-5.7c4.1-1.4,8.4-2.3,12.7-2.5c0.5,0,1.1,0,1.6,0l0.8,0l0.4,0c0.1,0,0.6,0,0.6,0
    l1.4,0.1l0.7,0.1l0.9,0.1l1.7,0.2c0.6,0.1,1,0.2,1.6,0.3c1,0.2,2.1,0.5,3.1,0.8c4,1.2,7.8,2.9,11.1,5c6.8,4.2,12.2,9.6,16.8,15.3
    c4.6,5.7,8.4,11.7,11.7,17.8c6.7,12.1,11.4,24.5,15.3,36.5c7.7,24,12,46.7,15,66.9c2.9,20.2,4.4,37.8,5.2,52.4
    c0.8,14.6,1,26,1.1,33.9c0,3.9,0,6.9,0,8.9C349.3,251.5,349.3,252.5,349.3,252.5z M349.3,252.5c0,0,0-1,0-3.1c0-2,0-5,0-8.9
    c-0.1-3.9-0.1-8.7-0.3-14.4c-0.2-5.7-0.5-12.2-1-19.4c-0.5-7.3-1.3-15.3-2.3-24c-1-8.7-2.4-18.1-4.2-28.1c-1.8-10-4.1-20.5-7-31.5
    c-2.9-11-6.4-22.4-10.9-34c-2.2-5.8-4.7-11.6-7.5-17.4c-2.8-5.8-5.9-11.5-9.5-17.1c-3.5-5.5-7.5-10.9-12-15.8
    c-4.5-4.8-9.6-9.2-15.3-12.1c-2.8-1.5-5.8-2.6-8.8-3.3c-0.8-0.2-1.5-0.3-2.3-0.4c-0.4,0-0.8-0.1-1.1-0.1l-1-0.1l-0.5,0l-0.7,0
    l-1.4,0l-1,0.1c-0.4,0-0.8,0-1.1,0.1c-3,0.3-6,1.2-8.9,2.4c-2.9,1.3-5.6,3-8.3,5c-5.3,4-9.9,9.3-14.1,15.1
    c-4.2,5.8-7.8,12.2-11.1,18.9c-3.3,6.7-6.2,13.7-8.9,20.9c-2.7,7.2-5,14.6-7.1,22.1c-2.1,7.5-4,15.2-5.7,22.9
    c-1.7,7.8-3.2,15.6-4.5,23.5c-5.2,31.7-7.9,64.4-8.1,97.1c-0.4,32.7,1.6,65.5,6.2,97.3c0.6,4,1.2,7.9,1.9,11.9
    c0.7,3.9,1.4,7.9,2.1,11.7c1.5,7.8,3.3,15.5,5.3,23c2,7.6,4.2,15,6.7,22.2c2.5,7.2,5.3,14.3,8.5,21.1c3.2,6.7,6.7,13.2,10.8,19.1
    c4,5.9,8.6,11.2,13.8,15.3c2.6,2.1,5.3,3.8,8.2,5.1c1.4,0.6,2.9,1.2,4.3,1.6c0.7,0.2,1.5,0.4,2.2,0.6l0.6,0.1l0.5,0.1l1,0.2
    c0.3,0.1,0.9,0.1,1.3,0.1l0.7,0.1l0.3,0c0.2,0-0.2,0,0.1,0c0.8,0,1.5,0.1,2.3,0c0.8,0,1.5-0.1,2.3-0.2c0.8-0.1,1.5-0.2,2.3-0.3
    c3-0.6,6-1.6,8.8-3.1c5.7-2.9,10.9-7.1,15.5-11.8c4.6-4.8,8.7-10,12.3-15.5c3.7-5.5,6.9-11.2,9.8-16.9c2.9-5.7,5.5-11.5,7.9-17.2
    c4.7-11.5,8.5-22.8,11.6-33.7c3.1-10.9,5.6-21.4,7.6-31.4c2-9.9,3.6-19.3,4.8-28c1.2-8.7,2.1-16.7,2.8-24
    c0.7-7.3,1.1-13.8,1.4-19.4c0.3-5.7,0.5-10.5,0.6-14.4c0.1-3.9,0.2-6.9,0.2-8.9C349.3,253.6,349.3,252.5,349.3,252.5z"/>
</g>
<g>
  <path d="M306.5,175.8c0,0,0.8,0.5,2.5,1.5c1.6,1,4.1,2.5,7.2,4.5c6.3,4,15.4,9.9,26.7,17.9c5.6,4,11.8,8.5,18.4,13.7
    c6.6,5.1,13.6,10.8,20.9,17.1c7.3,6.4,14.9,13.3,22.4,21.1c7.6,7.8,15.3,16.3,22.5,25.8c7.2,9.5,14.2,20,19.7,32
    c2.8,6,5.1,12.3,6.8,19.1c1.6,6.7,2.4,13.9,1.7,21.3c-0.3,3.7-1.1,7.4-2.3,11.1c-0.6,1.8-1.3,3.6-2.2,5.4c-0.4,0.9-0.9,1.7-1.3,2.6
    c0,0-0.2,0.4-0.2,0.4l-0.2,0.3l-0.3,0.6l-0.7,1.1c-0.6,0.8-1.2,1.7-1.8,2.5c-0.6,0.8-1.2,1.6-1.8,2.3c-1.3,1.5-2.6,2.9-4.1,4.2
    c-2.9,2.6-6.1,4.9-9.5,6.9c-6.8,3.9-14.1,6.5-21.6,8.2c-7.5,1.7-15.2,2.6-22.8,2.9c-15.4,0.6-30.8-1-46.1-3.8
    c-15.3-2.8-30.5-6.9-45.5-11.8c-30-10-59.2-23.5-87-39.5c-27.7-16-54.2-34.4-78.1-55.4c-11.9-10.5-23.3-21.6-33.5-33.6
    c-10.3-12-19.4-24.8-26.8-38.8c-3.6-7-6.8-14.4-9.1-22.1c-2.3-7.7-3.8-15.9-3.6-24.3c0.1-8.4,2-17.1,6.1-24.8l0.8-1.4l0.4-0.7
    l0.2-0.4c0-0.1,0.4-0.7,0.3-0.5l0.7-1.1c0.2-0.4,0.4-0.7,0.8-1.2l1-1.4l0.5-0.7l0.5-0.6c0.7-0.8,1.3-1.7,2.1-2.4
    c2.9-3.1,6.1-5.8,9.4-8.1c6.7-4.5,13.9-7.4,21-9.3c3.5-1,7.1-1.6,10.6-2.2c3.5-0.6,6.9-0.9,10.3-1.1c6.8-0.4,13.4-0.3,19.8,0.2
    c6.4,0.5,12.6,1.3,18.6,2.3c12,2.1,23.3,5,33.8,8.2c10.5,3.2,20.2,6.8,29.3,10.3c9,3.6,17.3,7.2,24.9,10.8
    c7.6,3.5,14.5,6.9,20.7,10.1c12.3,6.3,21.8,11.7,28.2,15.4c3.2,1.9,5.6,3.3,7.3,4.3C305.7,175.2,306.5,175.8,306.5,175.8
    L306.5,175.8z M305.5,177.5c0,0-0.9-0.5-2.5-1.4c-1.7-0.9-4.1-2.3-7.4-4.1c-3.2-1.8-7.3-3.9-12-6.3c-4.8-2.4-10.3-5.1-16.6-7.9
    c-6.3-2.8-13.3-5.7-21.1-8.7c-7.8-2.9-16.2-5.8-25.4-8.5c-9.1-2.7-19-5.2-29.4-7.3c-10.4-2.1-21.4-3.7-32.9-4.6
    c-11.4-0.9-23.4-0.9-35.2,0.7c-5.9,0.8-11.7,2-17.3,3.9c-5.5,1.9-10.8,4.3-15.1,7.6c-2.2,1.6-4.2,3.4-5.9,5.4
    c-0.5,0.5-0.8,1-1.2,1.5l-0.3,0.4l-0.2,0.3l-0.5,0.7c-0.1,0.2-0.4,0.6-0.6,1l-0.7,1.1c-0.2,0.3,0.1-0.1,0,0l-0.1,0.2l-0.2,0.4
    l-0.5,0.9c-2.3,4.7-3.5,10.1-3.4,15.9c0,5.8,1.2,12,3,18.2c1.9,6.2,4.5,12.4,7.7,18.5c6.3,12.3,14.6,24.1,23.8,35.5
    c9.3,11.4,19.6,22.3,30.6,32.7c22.1,20.8,47.2,39.4,73.7,55.5c26.6,16.1,54.7,29.8,83.4,40c14.4,5.1,28.9,9.3,43.5,12.4
    c14.5,3,29.2,4.9,43.4,4.7c7.1-0.1,14.1-0.7,20.8-2.1c6.7-1.3,13.1-3.4,18.8-6.5c2.8-1.5,5.5-3.3,7.8-5.4c1.2-1,2.3-2.1,3.3-3.2
    c0.5-0.6,1-1.2,1.5-1.8l1.3-1.7l0.7-1.1l0.4-0.5l0.2-0.3c0.1-0.1,0,0.1,0.1-0.1c0.4-0.7,0.8-1.3,1.1-2c0.7-1.4,1.3-2.7,1.8-4.2
    c1.1-2.8,1.8-5.8,2.2-8.9c0.8-6.1,0.3-12.4-0.9-18.5c-1.2-6.1-3.1-12.1-5.4-17.8c-4.7-11.5-10.8-22-17.4-31.6
    c-13.2-19.3-28.1-35.1-42.1-48.2c-14-13.1-27.2-23.4-38.4-31.5c-5.6-4-10.7-7.5-15.2-10.4c-4.5-3-8.3-5.3-11.5-7.3
    c-3.2-1.9-5.6-3.4-7.2-4.3C306.3,178,305.5,177.5,305.5,177.5L305.5,177.5z"/>
</g>
<ellipse class="st0" cx="345.5" cy="200" rx="41.6" ry="45.6"/>
<g>
  <path d="M303.6,338.1c0,0-0.9,0.5-2.5,1.4c-1.7,0.9-4.2,2.3-7.5,4c-6.6,3.4-16.2,8.4-28.8,14.2c-6.3,2.9-13.3,6-21,9.1
    c-7.7,3.2-16.1,6.4-25.3,9.5c-9.1,3.1-18.9,6.2-29.5,8.9c-10.5,2.7-21.7,5.1-33.6,6.6c-11.9,1.5-24.5,2.3-37.6,1.1
    c-6.5-0.6-13.2-1.7-19.9-3.7c-6.6-2-13.3-4.9-19.3-9.2c-3-2.1-5.9-4.7-8.4-7.5c-1.3-1.4-2.5-3-3.6-4.6c-0.6-0.8-1-1.6-1.6-2.5
    c0,0-0.2-0.4-0.3-0.4l-0.2-0.3l-0.3-0.6l-0.6-1.1c-0.4-0.9-0.9-1.9-1.3-2.8c-0.4-0.9-0.7-1.8-1.1-2.7c-0.6-1.9-1.2-3.7-1.6-5.7
    c-0.8-3.8-1.2-7.8-1.2-11.6c0-7.8,1.5-15.5,3.7-22.8c2.3-7.4,5.4-14.4,8.9-21.2c7.2-13.6,16.3-26.2,26.3-38.1
    c10.1-11.9,21.2-23,33-33.5c23.6-21,50-39.5,77.7-55.6c27.7-16,56.9-29.7,87-40c15.1-5.1,30.4-9.3,45.9-12.2
    c15.5-2.9,31.2-4.4,47-3.8c7.9,0.4,15.8,1.3,23.7,3.2c7.8,1.8,15.6,4.7,22.8,9c7.2,4.3,13.8,10.3,18.5,17.7l0.8,1.4l0.4,0.7
    l0.2,0.3c0,0.1,0.4,0.7,0.3,0.6l0.6,1.2c0.2,0.4,0.4,0.7,0.6,1.3l0.7,1.6l0.3,0.8l0.3,0.8c0.4,1,0.8,2,1,3c1.3,4,2,8.2,2.3,12.2
    c0.5,8.1-0.5,15.8-2.4,22.9c-0.9,3.5-2.1,6.9-3.4,10.2c-1.3,3.3-2.7,6.4-4.2,9.5c-3,6.1-6.5,11.8-10.1,17.1
    c-3.6,5.3-7.4,10.3-11.3,15c-7.8,9.4-15.9,17.7-23.9,25.2c-8,7.5-16,14.1-23.6,20.2c-7.6,6-14.9,11.4-21.8,16.2
    c-6.8,4.8-13.2,9.1-19.1,12.8c-11.7,7.5-21,13-27.5,16.7c-3.2,1.8-5.7,3.2-7.4,4.2C304.5,337.7,303.6,338.1,303.6,338.1
    L303.6,338.1z M302.7,336.4c0,0,0.8-0.5,2.5-1.5c1.6-1,4.1-2.4,7.2-4.3c3.1-1.9,7-4.3,11.5-7.3c4.5-2.9,9.6-6.4,15.1-10.5
    c5.6-4,11.6-8.7,18-13.9c6.4-5.3,13.1-11.2,20-17.7c6.9-6.6,14-13.8,21-21.8c7-8,13.9-16.7,20.4-26.2c6.5-9.5,12.4-19.8,17-30.8
    c2.3-5.5,4.1-11.2,5.3-16.9c1.2-5.7,1.6-11.5,1-16.9c-0.3-2.7-0.9-5.3-1.8-7.8c-0.2-0.6-0.5-1.2-0.7-1.8l-0.2-0.5l-0.2-0.4
    l-0.4-0.7c-0.1-0.2-0.3-0.6-0.5-1l-0.6-1.1c-0.2-0.3,0.1,0.1,0,0l-0.1-0.2l-0.3-0.4l-0.5-0.8c-2.9-4.4-7-8-12.1-10.9
    c-5.1-2.9-11-5-17.3-6.5c-6.3-1.5-13-2.3-19.9-2.6c-13.8-0.7-28.2,0.6-42.7,2.8c-14.5,2.4-29.1,5.8-43.6,10.2
    c-29,8.8-57.7,21.2-84.9,36.1c-27.2,15-53.1,32.4-76.4,52.2c-11.6,9.9-22.5,20.4-32.4,31.5c-9.9,11.1-18.8,22.8-25.8,35.2
    c-3.5,6.2-6.5,12.6-8.6,19.1c-2.2,6.5-3.6,13.1-3.8,19.5c-0.1,3.2,0.2,6.4,0.7,9.5c0.3,1.5,0.7,3,1.1,4.5c0.2,0.7,0.5,1.4,0.8,2.2
    l0.8,2l0.6,1.2l0.3,0.6l0.1,0.3c0.1,0.1,0-0.1,0.1,0.1c0.4,0.7,0.7,1.3,1.2,2c0.8,1.3,1.7,2.5,2.7,3.7c1.9,2.3,4.2,4.5,6.6,6.3
    c4.9,3.7,10.6,6.5,16.5,8.5c5.9,2,12,3.4,18.2,4.2c12.3,1.7,24.5,1.6,36.1,0.7c23.3-1.8,44.5-6.8,62.8-12.3
    c18.3-5.6,33.9-11.8,46.4-17.5c6.3-2.8,11.8-5.5,16.6-7.9c4.8-2.4,8.8-4.6,12-6.3c3.2-1.8,5.7-3.1,7.4-4.1
    C301.8,336.9,302.7,336.4,302.7,336.4L302.7,336.4z"/>
</g>
<path d="M321.1,204.6"/>
<path d="M321.1,195.3"/>
<g>
  <path d="M224.1,303.7c0,1.8,1.5,3.3,3.4,3.3h20.2c1.9,0,3.4-1.5,3.4-3.3l0-49.4c0-7.2,6.1-13,13.5-13h7.1c7.4,0,13.3,5.8,13.3,13
    l0.1,49.4c0,1.8,1.5,3.3,3.4,3.3h20.2c1.9,0,3.4-1.5,3.4-3.3l0-49.4c0-21.9-18-39.7-40.4-39.7h-7.1c-22.4,0-40.5,17.8-40.5,39.7
    L224.1,303.7z"/>
  <g>
    <path d="M330,178.1c-1.4-1.3-3.6-1.3-5,0l-1.3,1.3c-1.4,1.3-1.4,3.6,0,4.9l8.1,7.9c1.1,1.1,1,2.8-0.1,3.9l-1,1
      c-1.1,1.1-2.9,1.1-3.9,0l-8.2-7.9c-4.2-4.1-4.2-10.7,0-14.8l1.3-1.3c4.2-4.1,11-4,15.2,0.1l7.6,7.4l0.5,0.5c1.1,1.1,1.1,2.8,0,3.9
      l-1,1c-1.1,1.1-2.9,1.2-4,0.1L330,178.1z"/>
    <path d="M367,184.3c1.4-1.3,1.4-3.5,0-4.8l-1.3-1.3c-1.4-1.3-3.6-1.4-5,0l-8.1,7.9c-1.1,1.1-2.9,1-4,0l-1-1
      c-1.1-1.1-1.1-2.8,0-3.8l8.1-8c4.2-4.1,11-4.1,15.2,0l1.3,1.3c4.2,4.1,4.2,10.7,0,14.8l-7.6,7.4l-0.5,0.5c-1.1,1.1-2.9,1.1-4,0
      l-1-1c-1.1-1.1-1.2-2.8-0.1-3.9L367,184.3z"/>
    <path d="M323.6,214.3c-1.4,1.3-1.4,3.5,0,4.9l1.3,1.3c1.4,1.3,3.6,1.4,5,0l8.1-7.9c1.1-1.1,2.9-1,4,0l1,1c1.1,1.1,1.1,2.8,0,3.8
      l-8.2,8c-4.2,4.1-11,4.2-15.2,0l-1.3-1.3c-4.2-4.1-4.1-10.7,0.1-14.8l7.6-7.4l0.5-0.5c1.1-1.1,2.9-1.1,4,0l1,1
      c1.1,1.1,1.2,2.8,0.1,3.9L323.6,214.3z"/>
    <path d="M360.6,220.5c1.4,1.3,3.6,1.3,5,0l1.3-1.3c1.4-1.4,1.4-3.6,0-4.9l-8.1-7.9c-1.1-1.1-1-2.8,0.1-3.9l1-1
      c1.1-1.1,2.8-1.1,3.9,0l8.1,8c4.2,4.1,4.2,10.7,0.1,14.8l-1.3,1.3c-4.2,4.1-11,4.1-15.2,0L348,218l-0.5-0.5
      c-1.1-1.1-1.1-2.8,0-3.9l1-1c1.1-1.1,2.9-1.2,4-0.1L360.6,220.5z"/>
  </g>
</g>
</svg>
