<?xml version="1.0" encoding="utf-8"?>
<!-- Generator: Adobe Illustrator 19.1.0, SVG Export Plug-In . SVG Version: 6.00 Build 0)  -->
<svg version="1.1" id="Layer_1" xmlns="http://www.w3.org/2000/svg" xmlns:xlink="http://www.w3.org/1999/xlink" x="0px" y="0px"
   viewBox="0 0 841.9 253.1" style="enable-background:new 0 0 841.9 253.1;" xml:space="preserve">
<path d="M142,146.6c0-12.1-4.7-23.1-12.4-31.5c7.5-8.3,12.1-19.2,12.1-31.1v-7.9h-0.1c-0.3-1.8-2-3.2-3.9-3.2h-24
  c-2,0-3.6,1.4-3.9,3.2l-0.5,7.9c0,8.5-7.1,15.4-15.8,15.4v0.1h-8.1c-5.6,0-10.9,1-15.9,2.7V33.6c0-2.1-1.8-3.9-4-3.9h-24
  c-2.2,0-4,1.8-4,3.9v145.3c0,2.1,1.8,3.9,4,3.9h24c2.2,0,4-1.8,4-3.9v-32.3h0.2c0-8.5,7.1-15.4,15.8-15.4h8.5
  c8.7,0,15.8,6.9,15.8,15.4v7.9h0.1v24.4c0,2.1,1.8,3.9,4,3.9h24c2.2,0,4-1.8,4-3.9l0.4-24.4V146.6z"/>
<path d="M261.8,103.4c0-2.1-1.8-3.9-4-3.9h-24c-2.2,0-4,1.8-4,3.9v58.5c0,8.5-7.2,15.4-16,15.4h-8.5c-8.7,0-15.8-6.9-15.8-15.4
  l-0.1-58.5c0-2.1-1.8-3.9-4-3.9h-24c-2.2,0-4,1.8-4,3.9l-0.1,58.5c0,26,21.3,47.1,47.9,47.1h8.5c26.6,0,48-21.1,48-47.1L261.8,103.4
  z"/>
<path d="M278,179.7c0,2.1,1.8,3.9,4,3.9h24c2.2,0,4-1.8,4-3.9l0-58.5c0-8.5,7.2-15.4,15.9-15.4h8.5c8.7,0,15.8,6.9,15.8,15.4
  l0.1,58.5c0,2.1,1.8,3.9,4,3.9h24c2.2,0,4-1.8,4-3.9l0.1-58.5c0-25.9-21.3-47.1-47.9-47.1h-8.5c-26.6,0-47.9,21.1-47.9,47.1
  L278,179.7z"/>
<path d="M502.8,103.4c0-2.1-1.8-3.9-4-3.9h-24c-2.2,0-4,1.8-4,3.9v58.5c0,8.5-7.2,15.4-15.9,15.4h-8.5c-8.7,0-15.8-6.9-15.8-15.4
  l-0.1-58.5c0-2.1-1.8-3.9-4-3.9h-24c-2.2,0-4,1.8-4,3.9l0,58.5c0,26,21.3,47.1,47.9,47.1h8.5c26.6,0,47.9-21.1,47.9-47.1
  L502.8,103.4z"/>
<path d="M743.8,103.4c0-2.1-1.8-3.9-4-3.9h-24c-2.2,0-4,1.8-4,3.9v58.5c0,8.5-7.2,15.4-15.9,15.4h-8.5c-8.7,0-15.8-6.9-15.8-15.4
  l-0.1-58.5c0-2.1-1.8-3.9-4-3.9h-24c-2.2,0-4,1.8-4,3.9l-0.1,58.5c0,26,21.3,47.1,47.9,47.1h8.5c26.6,0,47.9-21.1,47.9-47.1
  L743.8,103.4z"/>
<path d="M519.1,178.9c0,2.2,1.8,3.9,4,3.9h24c2.2,0,4-1.7,4-3.9v-58.5c0-8.5,7.2-15.4,15.9-15.4h8.5c8.7,0,15.8,6.9,15.8,15.4
  l0.1,58.5c0,2.2,1.8,3.9,4,3.9h24c2.2,0,4-1.7,4-3.9l0.1-58.5c0-26-21.3-47.1-47.9-47.1H567c-26.6,0-47.9,21.1-47.9,47.1
  L519.1,178.9z"/>
</svg>
