<?xml version="1.0" encoding="utf-8"?>
<!-- Generator: Adobe Illustrator 19.1.0, SVG Export Plug-In . SVG Version: 6.00 Build 0)  -->
<svg version="1.1" id="Ebene_1" xmlns="http://www.w3.org/2000/svg" xmlns:xlink="http://www.w3.org/1999/xlink" x="0px" y="0px"
   viewBox="0 0 223.3 225.9" style="enable-background:new 0 0 223.3 225.9;" xml:space="preserve">
<style type="text/css">
  .st0{fill:#20292D;}
</style>
<path class="st0" d="M44.9,103.4c3.9,3.9,10.2,3.7,14.1-0.1l3.7-3.6c4-3.8,4.1-10.1,0.2-14L33.7,57.1c-4.9-4.8-4.8-12.8,0.1-17.6
  l4.8-4.7c4.9-4.8,13-4.8,17.9,0l29.1,28.6c3.9,3.8,10.5,3.5,14.4-0.3l3.7-3.6c3.9-3.9,3.9-10.2,0-14l-1.8-1.8L74.6,17.1
  C59.6,2.4,35.2,2.2,20.2,16.9l-4.8,4.7C0.3,36.3,0.5,60.1,15.6,74.8L44.9,103.4z"/>
<path class="st0" d="M123.2,63.4c3.9,3.8,10.4,4,14.3,0.2L166.7,35c4.9-4.8,13.1-4.7,18,0.1l4.8,4.7c4.9,4.8,4.9,12.6,0,17.4
  l-29.2,28.5c-3.9,3.8-3.6,10.2,0.3,14l3.7,3.7c3.9,3.8,10.3,3.8,14.3,0l1.8-1.8L207.7,75c15-14.7,15.2-38.5,0.1-53.2l-4.8-4.7
  C188,2.5,163.6,2.6,148.5,17.3L119.3,46c-3.9,3.8-3.8,9.9,0.2,13.8L123.2,63.4z"/>
<path class="st0" d="M121,178.2l27.4,26.7c15,14.8,39.4,14.9,54.5,0.2l4.7-4.6c15.1-14.7,14.9-38.5-0.2-53.2l-29.3-28.6
  c-3.9-3.8-10.2-3.7-14.1,0.2l-3.7,3.6c-3.9,3.9-4.1,10.2-0.2,14l29.2,28.5c4.9,4.8,4.9,12.7-0.1,17.6l-4.8,4.7
  c-4.9,4.8-13,4.8-17.9,0l-29.2-28.5c-3.9-3.9-10.5-3.5-14.4,0.3l-3.7,3.6c-3.9,3.9-3.9,10.1,0,14L121,178.2z"/>
<path class="st0" d="M20,205.2c15.1,14.7,39.4,14.6,54.5-0.2l29.3-28.6c3.9-3.8,3.8-10-0.2-13.8l-3.7-3.7c-3.9-3.8-10.4-4-14.4-0.2
  l-29.2,28.5c-4.9,4.8-13,4.7-17.9-0.1l-4.8-4.7c-5-4.8-5-12.6,0-17.5l29.2-28.5c3.9-3.9,3.6-10.3-0.3-14.1l-3.7-3.6
  c-3.9-3.9-10.4-3.9-14.3,0l-1.8,1.7l-27.3,26.7C0.3,162,0.2,185.8,15.2,200.5L20,205.2z"/>
</svg>
