<?xml version="1.0" encoding="utf-8"?>
<!-- Generator: Adobe Illustrator 19.1.0, SVG Export Plug-In . SVG Version: 6.00 Build 0)  -->
<svg version="1.1" id="Ebene_1" xmlns="http://www.w3.org/2000/svg" xmlns:xlink="http://www.w3.org/1999/xlink" x="0px" y="0px"
   viewBox="0 0 223.3 225.9" style="enable-background:new 0 0 223.3 225.9;" xml:space="preserve">
<style type="text/css">
  .st0{fill:#20292D;}
</style>
<path class="st0" d="M34,182h21.8c2,0,3.6-1.6,3.6-3.6v-29.4h0.2c0-7.7,6.4-14,14.4-14h7.7c7.9,0,14.4,6.3,14.4,14v7.2h0.1v22.2
  c0,2,1.6,3.6,3.6,3.6h21.8c2,0,3.6-1.6,3.6-3.6l0.4-22.2v-7.2c0-11-4.3-21-11.3-28.6c6.8-7.5,11-17.4,11-28.3V85h-0.1
  c-0.3-1.7-1.8-2.9-3.6-2.9H99.7c-1.8,0-3.3,1.3-3.6,2.9l-0.5,7.2c0,7.7-6.4,14-14.4,14v0.1H74c-5.1,0-10,0.9-14.5,2.4V46.3
  c0-1.9-1.6-3.6-3.6-3.6H34c-2,0-3.6,1.6-3.6,3.6v132.2C30.4,180.4,32,182,34,182z"/>
</svg>
